<svg viewBox="0 0 435 132" fill="none" xmlns="http://www.w3.org/2000/svg"><rect width="434.874" height="132" rx="66" fill="#fff"/><path d="m58.54 53.348 7.572-7.784 4.395 4.501-7.943 7.572h11.173v6.248H62.51l7.996 7.766-4.395 4.413-10.855-10.908-10.854 10.908-4.395-4.395 7.995-7.766H36.778v-6.266H47.95l-7.942-7.572 4.395-4.5 7.571 7.783V42.28h6.566v11.067Zm-6.566 19.486h6.566V87.66h-6.566V72.834Z" fill="#000"/><path d="M97.362 53.823h3.366v25.146h-3.366V53.823Zm7.605 7.062h3.366v18.084h-3.366V60.885Zm1.683-2.574a2.16 2.16 0 0 1-1.584-.66c-.44-.44-.66-.98-.66-1.617 0-.616.209-1.133.627-1.551.44-.44.979-.66 1.617-.66s1.177.22 1.617.66c.44.418.66.935.66 1.55 0 .617-.22 1.156-.66 1.618-.44.44-.979.66-1.617.66Zm19.255 10.725c0-1.738-.44-3.102-1.32-4.092-.858-1.012-2.035-1.518-3.531-1.518-1.606 0-2.86.517-3.762 1.55-.902 1.035-1.353 2.487-1.353 4.357v9.636h-3.366V60.885h3.366v2.145a7.03 7.03 0 0 1 2.508-1.947c1.012-.462 2.134-.693 3.366-.693 1.518 0 2.838.34 3.96 1.023 1.122.66 1.98 1.617 2.574 2.87.616 1.255.924 2.729.924 4.423v10.263h-3.366v-9.933Zm7.486-15.213h3.366v16.17l8.91-9.108h4.389l-7.26 7.326 7.656 10.758h-3.894l-5.94-8.547-3.861 3.927v4.62h-3.366V53.823Zm24.981 25.64c-1.43 0-2.552-.44-3.366-1.32-.814-.901-1.221-2.144-1.221-3.728V63.69h-3.036v-2.805h3.036V56.33h3.366v4.554h4.719v2.805h-4.719v9.966c0 .968.154 1.66.462 2.079.33.418.869.627 1.617.627.924 0 1.738-.33 2.442-.99v2.772c-.308.396-.77.715-1.386.957a5.024 5.024 0 0 1-1.914.363Zm6.15-18.578h3.366v2.54a5.907 5.907 0 0 1 2.079-2.21 5.26 5.26 0 0 1 2.838-.825c.55 0 1.001.044 1.353.132.352.066.704.187 1.056.363v3.399c-.22-.198-.55-.363-.99-.495a4.165 4.165 0 0 0-1.386-.231c-1.584 0-2.805.594-3.663 1.782-.858 1.188-1.287 2.816-1.287 4.884v8.745h-3.366V60.885Zm10.839 18.612a2.515 2.515 0 0 1-1.848-.76 2.626 2.626 0 0 1-.759-1.88c0-.726.253-1.342.759-1.848a2.515 2.515 0 0 1 1.848-.76c.726 0 1.331.254 1.815.76.506.506.759 1.122.759 1.848s-.253 1.353-.759 1.88c-.484.507-1.089.76-1.815.76Zm13.172-.033c-1.804 0-3.399-.385-4.785-1.155-1.364-.792-2.431-1.903-3.201-3.333-.748-1.452-1.122-3.135-1.122-5.05 0-1.781.363-3.398 1.089-4.85.726-1.452 1.76-2.596 3.102-3.432 1.342-.836 2.882-1.254 4.62-1.254 1.606 0 3.08.363 4.422 1.089 1.364.704 2.453 1.793 3.267 3.267.814 1.452 1.221 3.223 1.221 5.313v.627h-14.454c.132 1.782.715 3.179 1.749 4.19 1.034 1.013 2.398 1.519 4.092 1.519 1.188 0 2.244-.308 3.168-.924.924-.616 1.529-1.43 1.815-2.442h3.432c-.176 1.188-.671 2.277-1.485 3.267-.792.968-1.793 1.738-3.003 2.31-1.21.572-2.519.858-3.927.858Zm4.983-11.583c-.22-1.364-.803-2.442-1.749-3.234-.946-.814-2.123-1.221-3.531-1.221-1.342 0-2.486.407-3.432 1.22-.946.793-1.584 1.87-1.914 3.235h10.626Zm15.449 11.583c-1.804 0-3.399-.385-4.785-1.155-1.364-.792-2.431-1.903-3.201-3.333-.748-1.452-1.122-3.135-1.122-5.05 0-1.781.363-3.398 1.089-4.85.726-1.452 1.76-2.596 3.102-3.432 1.342-.836 2.882-1.254 4.62-1.254 1.606 0 3.08.363 4.422 1.089 1.364.704 2.453 1.793 3.267 3.267.814 1.452 1.221 3.223 1.221 5.313v.627h-14.454c.132 1.782.715 3.179 1.749 4.19 1.034 1.013 2.398 1.519 4.092 1.519 1.188 0 2.244-.308 3.168-.924.924-.616 1.529-1.43 1.815-2.442h3.432c-.176 1.188-.671 2.277-1.485 3.267-.792.968-1.793 1.738-3.003 2.31-1.21.572-2.519.858-3.927.858Zm4.983-11.583c-.22-1.364-.803-2.442-1.749-3.234-.946-.814-2.123-1.221-3.531-1.221-1.342 0-2.486.407-3.432 1.22-.946.793-1.584 1.87-1.914 3.235h10.626Zm14.578-15.312h3.564l-10.593 31.185h-3.432l10.461-31.185Zm12.093 26.895c-1.496 0-2.838-.264-4.026-.792-1.188-.55-2.123-1.31-2.805-2.277-.66-.968-1.001-2.08-1.023-3.333h3.465c.022 1.056.462 1.914 1.32 2.574.88.66 1.969.99 3.267.99 1.232 0 2.211-.231 2.937-.693.748-.462 1.122-1.067 1.122-1.815 0-.594-.231-1.09-.693-1.485-.462-.418-1.298-.77-2.508-1.056l-3.102-.693c-1.738-.396-3.058-1.023-3.96-1.881-.902-.88-1.353-1.958-1.353-3.234 0-1.056.286-1.991.858-2.805.594-.814 1.419-1.441 2.475-1.881 1.078-.462 2.31-.693 3.696-.693 1.32 0 2.53.275 3.63.825 1.122.528 2.013 1.254 2.673 2.178a5.348 5.348 0 0 1 1.023 3.069h-3.432c-.022-.902-.44-1.661-1.254-2.277-.792-.616-1.749-.924-2.871-.924-1.078 0-1.958.23-2.64.693-.66.44-.99 1.023-.99 1.749 0 .572.275 1.067.825 1.485.55.396 1.397.737 2.541 1.023l3.234.825c1.584.396 2.794 1.045 3.63 1.947.836.88 1.254 1.99 1.254 3.333a4.29 4.29 0 0 1-.924 2.706c-.594.77-1.452 1.375-2.574 1.815-1.1.418-2.365.627-3.795.627Zm23.344-10.428c0-1.782-.44-3.157-1.32-4.125-.88-.99-2.057-1.485-3.531-1.485-1.584 0-2.838.506-3.762 1.518-.902 1.012-1.353 2.475-1.353 4.389v9.636h-3.366V53.823h3.366v9.207a6.534 6.534 0 0 1 2.508-1.98c1.012-.462 2.134-.693 3.366-.693 1.474 0 2.772.33 3.894.99 1.122.638 1.991 1.584 2.607 2.838.638 1.254.957 2.76.957 4.52V78.97h-3.366v-9.933Zm16.034 10.428c-1.804 0-3.41-.407-4.818-1.221a8.839 8.839 0 0 1-3.3-3.432c-.792-1.452-1.188-3.091-1.188-4.917 0-1.76.385-3.355 1.155-4.785a8.605 8.605 0 0 1 3.267-3.432c1.43-.858 3.058-1.287 4.884-1.287 1.804 0 3.41.418 4.818 1.254a8.606 8.606 0 0 1 3.3 3.399c.792 1.43 1.188 3.058 1.188 4.884 0 1.76-.385 3.366-1.155 4.818a8.765 8.765 0 0 1-3.3 3.465c-1.408.836-3.025 1.254-4.851 1.254Zm-6.072-9.57c0 1.232.253 2.343.759 3.333a5.806 5.806 0 0 0 2.145 2.343c.924.55 1.98.825 3.168.825 1.21 0 2.277-.275 3.201-.825a5.86 5.86 0 0 0 2.145-2.31c.506-.99.759-2.101.759-3.333 0-1.21-.264-2.31-.792-3.3a5.806 5.806 0 0 0-2.145-2.343c-.924-.572-1.98-.858-3.168-.858-1.188 0-2.244.286-3.168.858a5.806 5.806 0 0 0-2.145 2.343c-.506.968-.759 2.057-.759 3.267Zm28.33 9.57c-1.232 0-2.365-.242-3.399-.726a8.163 8.163 0 0 1-2.706-2.046v10.13h-3.366V60.886h3.366v2.244a7.472 7.472 0 0 1 2.673-2.013c1.034-.484 2.178-.726 3.432-.726 1.672 0 3.157.418 4.455 1.254 1.298.814 2.31 1.947 3.036 3.399.726 1.43 1.089 3.047 1.089 4.85 0 1.805-.363 3.433-1.089 4.885s-1.738 2.596-3.036 3.432c-1.298.836-2.783 1.254-4.455 1.254Zm-6.105-9.57c0 1.276.231 2.409.693 3.399.484.99 1.155 1.76 2.013 2.31.858.55 1.848.825 2.97.825s2.123-.286 3.003-.858c.88-.572 1.562-1.353 2.046-2.343.506-.99.759-2.101.759-3.333 0-1.232-.253-2.343-.759-3.333-.484-.99-1.166-1.76-2.046-2.31-.88-.572-1.881-.858-3.003-.858s-2.112.275-2.97.825c-.858.55-1.529 1.32-2.013 2.31-.462.99-.693 2.112-.693 3.366Zm23.969 9.57c-2.068 0-3.696-.473-4.884-1.42-1.188-.967-1.782-2.287-1.782-3.96 0-1.825.671-3.233 2.013-4.223 1.342-1.012 3.212-1.518 5.61-1.518h5.973c-.044-1.584-.506-2.794-1.386-3.63-.88-.858-2.134-1.287-3.762-1.287-1.166 0-2.145.264-2.937.792-.792.528-1.298 1.276-1.518 2.244h-3.465c.176-1.1.627-2.112 1.353-3.036.748-.924 1.705-1.661 2.871-2.211 1.188-.55 2.508-.825 3.96-.825 1.65 0 3.091.33 4.323.99a6.896 6.896 0 0 1 2.904 2.87c.682 1.233 1.023 2.696 1.023 4.39v10.329h-3.366v-2.937a8.791 8.791 0 0 1-3.003 2.54c-1.188.595-2.497.892-3.927.892Zm-3.333-5.643c0 .814.341 1.463 1.023 1.947.682.484 1.595.726 2.739.726.99 0 1.936-.21 2.838-.627a6.482 6.482 0 0 0 2.343-1.881c.638-.814 1.045-1.771 1.221-2.871h-5.247c-1.694 0-2.937.23-3.729.693-.792.44-1.188 1.11-1.188 2.013Zm14.784-12.936h3.432l5.643 15.378 5.676-15.378h3.465l-6.93 18.084h-4.389l-6.897-18.084Zm28.215 18.579c-1.804 0-3.399-.385-4.785-1.155-1.364-.792-2.431-1.903-3.201-3.333-.748-1.452-1.122-3.135-1.122-5.05 0-1.781.363-3.398 1.089-4.85.726-1.452 1.76-2.596 3.102-3.432 1.342-.836 2.882-1.254 4.62-1.254 1.606 0 3.08.363 4.422 1.089 1.364.704 2.453 1.793 3.267 3.267.814 1.452 1.221 3.223 1.221 5.313v.627h-14.454c.132 1.782.715 3.179 1.749 4.19 1.034 1.013 2.398 1.519 4.092 1.519 1.188 0 2.244-.308 3.168-.924.924-.616 1.529-1.43 1.815-2.442h3.432c-.176 1.188-.671 2.277-1.485 3.267-.792.968-1.793 1.738-3.003 2.31-1.21.572-2.519.858-3.927.858Zm4.983-11.583c-.22-1.364-.803-2.442-1.749-3.234-.946-.814-2.123-1.221-3.531-1.221-1.342 0-2.486.407-3.432 1.22-.946.793-1.584 1.87-1.914 3.235h10.626Zm7.1-6.996h3.366v2.54a5.907 5.907 0 0 1 2.079-2.21 5.26 5.26 0 0 1 2.838-.825c.55 0 1.001.044 1.353.132.352.066.704.187 1.056.363v3.399c-.22-.198-.55-.363-.99-.495a4.165 4.165 0 0 0-1.386-.231c-1.584 0-2.805.594-3.663 1.782-.858 1.188-1.287 2.816-1.287 4.884v8.745h-3.366V60.885Zm18.426 18.678-7.161-18.678h3.432l5.412 14.75 5.907-14.75h3.498l-10.857 25.938h-3.267l3.036-7.26Z" fill="#1E2330"/></svg>